<?xml version="1.0" encoding="UTF-8"?>
<!DOCTYPE svg PUBLIC "-//W3C//DTD SVG 1.1//EN" "http://www.w3.org/Graphics/SVG/1.1/DTD/svg11.dtd">
<!-- Creator: CorelDRAW X7 -->
<svg xmlns="http://www.w3.org/2000/svg" xml:space="preserve" width="31.7832mm" height="12.857mm" version="1.1" style="shape-rendering:geometricPrecision; text-rendering:geometricPrecision; image-rendering:optimizeQuality; fill-rule:evenodd; clip-rule:evenodd"
viewBox="0 0 5120 2071"
 xmlns:xlink="http://www.w3.org/1999/xlink">
 <defs>
  <style type="text/css">
   <![CDATA[
    .fil0 {fill:#004962}
    .fil1 {fill:#FF6500}
    .fil3 {fill:#004962;fill-rule:nonzero}
    .fil2 {fill:#FF6500;fill-rule:nonzero}
   ]]>
  </style>
 </defs>
 <g id="Capa_x0020_1">
  <metadata id="CorelCorpID_0Corel-Layer"/>
  <path class="fil0" d="M1499 1542c-10,-107 -25,-192 -46,-256 -413,107 -1183,14 -1087,-562 74,-445 755,-602 1143,-370 0,0 1734,1230 1734,1230 0,-516 0,-1032 0,-1548 -117,0 -235,0 -352,0 -5,309 -5,650 0,959 -796,-475 -1186,-936 -1654,-956 -1772,-78 -1546,1806 262,1503z"/>
  <polygon class="fil1" points="3995,812 5055,0 4557,0 3549,810 4557,1620 5055,1620 "/>
  <path class="fil2" d="M183 2004l53 10c-9,20 -22,34 -41,43 -19,9 -43,14 -72,14 -36,0 -65,-8 -88,-24 -23,-15 -35,-37 -35,-65 0,-29 12,-51 35,-67 23,-16 54,-24 92,-24 33,0 60,6 80,19 12,7 22,18 28,32l-54 8c-3,-9 -10,-16 -20,-21 -10,-5 -23,-8 -37,-8 -20,0 -37,5 -49,14 -13,9 -19,24 -19,45 0,22 6,38 19,47 12,9 28,14 48,14 14,0 27,-3 37,-9 11,-6 18,-15 23,-28z"/>
  <polygon id="1" class="fil2" points="362,2068 362,1894 415,1894 526,2011 526,1894 577,1894 577,2068 522,2068 412,1954 412,2068 "/>
  <polygon id="2" class="fil2" points="767,2068 767,1894 822,1894 822,1971 932,1894 1006,1894 904,1962 1011,2068 940,2068 866,1986 822,2015 822,2068 "/>
  <path class="fil3" d="M1555 2004l53 10c-8,20 -22,34 -41,43 -19,9 -43,14 -72,14 -36,0 -65,-8 -88,-24 -23,-15 -35,-37 -35,-65 0,-29 12,-51 35,-67 23,-16 54,-24 92,-24 33,0 60,6 80,19 13,7 22,18 28,32l-54 8c-3,-9 -10,-16 -20,-21 -10,-5 -23,-8 -37,-8 -20,0 -36,5 -49,14 -12,9 -19,24 -19,45 0,22 7,38 19,47 12,9 28,14 48,14 14,0 27,-3 37,-9 11,-6 18,-15 23,-28z"/>
  <path id="1" class="fil3" d="M1723 1982c0,-18 4,-33 12,-45 6,-9 14,-16 25,-24 11,-7 22,-12 35,-15 17,-5 36,-7 58,-7 40,0 72,8 96,24 24,16 36,38 36,66 0,28 -12,51 -36,66 -23,16 -55,24 -95,24 -40,0 -72,-8 -96,-23 -24,-16 -35,-38 -35,-66zm56 -1c0,20 7,35 21,45 14,10 32,15 54,15 22,0 40,-5 54,-15 14,-10 21,-25 21,-46 0,-20 -7,-34 -21,-44 -13,-10 -31,-15 -54,-15 -23,0 -41,5 -55,15 -13,10 -20,25 -20,45z"/>
  <polygon id="2" class="fil3" points="2160,2068 2160,1894 2213,1894 2324,2011 2324,1894 2374,1894 2374,2068 2320,2068 2210,1954 2210,2068 "/>
  <path id="3" class="fil3" d="M2497 2012l53 -4c4,12 10,20 20,26 10,5 23,8 39,8 18,0 31,-3 40,-8 9,-4 13,-10 13,-16 0,-4 -2,-8 -5,-11 -4,-3 -11,-5 -20,-7 -6,-2 -21,-4 -43,-8 -30,-5 -50,-10 -62,-17 -16,-10 -25,-22 -25,-35 0,-9 4,-18 12,-25 8,-8 19,-14 34,-18 14,-4 32,-6 53,-6 34,0 59,5 76,14 17,10 26,23 27,39l-55 1c-2,-9 -7,-15 -15,-19 -7,-4 -19,-6 -34,-6 -16,0 -28,2 -37,6 -6,3 -8,7 -8,11 0,4 2,8 8,11 6,4 23,7 50,11 26,4 46,9 58,13 13,4 23,10 30,18 7,7 11,16 11,27 0,10 -4,20 -13,28 -9,9 -21,16 -36,20 -16,4 -36,6 -59,6 -34,0 -61,-5 -79,-15 -18,-10 -29,-25 -33,-44z"/>
  <path id="4" class="fil3" d="M2843 1894l54 0 0 94c0,15 1,25 2,29 3,8 8,13 17,18 9,4 21,6 36,6 15,0 27,-2 34,-6 8,-4 13,-9 14,-15 2,-6 3,-16 3,-30l0 -96 55 0 0 92c0,20 -2,35 -5,44 -3,9 -8,16 -16,22 -8,6 -19,10 -32,14 -13,3 -30,5 -52,5 -25,0 -45,-2 -58,-6 -13,-3 -24,-8 -32,-15 -7,-6 -13,-12 -15,-19 -4,-10 -5,-25 -5,-44l0 -93z"/>
  <polygon id="5" class="fil3" points="3223,2068 3223,1895 3277,1895 3277,2039 3413,2039 3413,2068 "/>
  <polygon id="6" class="fil3" points="3564,2068 3564,1923 3484,1923 3484,1894 3698,1894 3698,1923 3618,1923 3618,2068 "/>
  <path id="7" class="fil3" d="M3821 1982c0,-18 4,-33 13,-45 6,-9 14,-16 25,-24 10,-7 22,-12 35,-15 16,-5 36,-7 58,-7 40,0 72,8 96,24 24,16 36,38 36,66 0,28 -12,51 -36,66 -24,16 -56,24 -95,24 -41,0 -73,-8 -96,-23 -24,-16 -36,-38 -36,-66zm56 -1c0,20 7,35 22,45 14,10 32,15 54,15 21,0 39,-5 53,-15 14,-10 21,-25 21,-46 0,-20 -7,-34 -20,-44 -14,-10 -32,-15 -54,-15 -23,0 -41,5 -55,15 -14,10 -21,25 -21,45z"/>
  <path id="8" class="fil3" d="M4258 2068l0 -174 115 0c29,0 50,2 63,5 13,3 24,8 32,16 8,8 11,17 11,28 0,13 -5,24 -17,32 -12,9 -30,14 -54,16 12,5 22,10 29,15 8,5 18,15 31,28l33 34 -65 0 -39 -38c-14,-13 -24,-22 -29,-25 -5,-4 -11,-6 -16,-8 -6,-1 -15,-2 -28,-2l-11 0 0 73 -55 0zm55 -100l40 0c27,0 43,-1 49,-2 7,-2 12,-4 16,-8 3,-3 5,-8 5,-13 0,-6 -2,-11 -7,-14 -5,-4 -12,-6 -21,-7 -4,0 -17,-1 -39,-1l-43 0 0 45z"/>
  <polygon id="9" class="fil3" points="4610,2068 4610,1894 4810,1894 4810,1923 4665,1923 4665,1962 4800,1962 4800,1992 4665,1992 4665,2039 4816,2039 4816,2068 "/>
  <path id="10" class="fil3" d="M4901 2012l53 -4c3,12 9,20 19,26 10,5 23,8 40,8 17,0 30,-3 39,-8 9,-4 13,-10 13,-16 0,-4 -1,-8 -5,-11 -4,-3 -10,-5 -20,-7 -6,-2 -20,-4 -43,-8 -29,-5 -50,-10 -61,-17 -17,-10 -25,-22 -25,-35 0,-9 4,-18 11,-25 8,-8 19,-14 34,-18 15,-4 32,-6 53,-6 34,0 59,5 76,14 18,10 26,23 27,39l-54 1c-3,-9 -8,-15 -15,-19 -8,-4 -19,-6 -35,-6 -15,0 -28,2 -37,6 -5,3 -8,7 -8,11 0,4 3,8 8,11 7,4 23,7 50,11 26,4 46,9 59,13 12,4 22,10 29,18 8,7 11,16 11,27 0,10 -4,20 -13,28 -8,9 -20,16 -36,20 -16,4 -36,6 -59,6 -34,0 -60,-5 -79,-15 -18,-10 -29,-25 -32,-44z"/>
 </g>
</svg>
